<svg width="32" height="22" viewBox="0 0 32 22" fill="none" xmlns="http://www.w3.org/2000/svg">
<path fill-rule="evenodd" clip-rule="evenodd" d="M18.8009 16.3135C18.4072 16.3135 18.0355 16.495 17.7935 16.8056L14.3399 21.237C14.0979 21.5475 13.7262 21.7291 13.3324 21.7291H4.58513C4.19532 21.7291 3.82684 21.5511 3.58455 21.2457L0.27669 17.0766C-0.090347 16.614 -0.0924226 15.9602 0.27167 15.4952L7.56963 6.1763C7.81173 5.86715 8.18257 5.68655 8.57524 5.68655H13.1991C13.5928 5.68655 13.9645 5.50497 14.2065 5.19442L17.6601 0.763026C17.9021 0.45248 18.2738 0.270905 18.6676 0.270905H27.4149C27.8047 0.270905 28.1732 0.448917 28.4155 0.754289L31.7233 4.92337C32.0903 5.38596 32.0924 6.03986 31.7283 6.50478L24.4304 15.8237C24.1883 16.1329 23.8174 16.3135 23.4248 16.3135H18.8009ZM16.5475 16.2879C16.9402 16.2879 17.311 16.1073 17.5531 15.7982L24.9344 6.37283C25.1445 6.10455 24.9533 5.71209 24.6126 5.71209H15.4525C15.0598 5.71209 14.689 5.8927 14.4469 6.20184L7.06562 15.6272C6.85552 15.8955 7.04666 16.2879 7.38741 16.2879H16.5475Z" fill="white"/>
</svg>
