<svg width="239" height="136" viewBox="0 0 239 136" fill="none" xmlns="http://www.w3.org/2000/svg">
<g id="circle">
<path id="circle0" d="M137.728 67.5593C137.728 103.696 108.055 133.009 71.4278 133.009C34.8011 133.009 5.12783 103.696 5.12783 67.5593C5.12783 31.4224 34.8011 2.10928 71.4278 2.10928C108.055 2.10928 137.728 31.4224 137.728 67.5593Z" stroke="url(#paint0_linear_3669_7479)" stroke-width="1.7"/>
<path id="circle1" d="M187.028 67.5593C187.028 103.696 157.354 133.009 120.728 133.009C84.1009 133.009 54.4276 103.696 54.4276 67.5593C54.4276 31.4224 84.1009 2.10928 120.728 2.10928C157.354 2.10928 187.028 31.4224 187.028 67.5593Z" stroke="url(#paint1_linear_3669_7479)" stroke-width="1.7"/>
<path id="circle2" d="M236.327 67.5593C236.327 103.696 206.654 133.009 170.027 133.009C133.401 133.009 103.727 103.696 103.727 67.5593C103.727 31.4224 133.401 2.10928 170.027 2.10928C206.654 2.10928 236.327 31.4224 236.327 67.5593Z" stroke="url(#paint2_linear_3669_7479)" stroke-width="1.7"/>
</g>
<defs>
<linearGradient id="paint0_linear_3669_7479" x1="4.27783" y1="1.25928" x2="163.751" y2="135.858" gradientUnits="userSpaceOnUse">
<stop stop-color="#008080"/>
<stop offset="1" stop-color="#FF4900"/>
</linearGradient>
<linearGradient id="paint1_linear_3669_7479" x1="53.5776" y1="1.25928" x2="213.051" y2="135.858" gradientUnits="userSpaceOnUse">
<stop stop-color="#008080"/>
<stop offset="1" stop-color="#FF4900"/>
</linearGradient>
<linearGradient id="paint2_linear_3669_7479" x1="102.877" y1="1.25928" x2="262.351" y2="135.858" gradientUnits="userSpaceOnUse">
<stop stop-color="#008080"/>
<stop offset="1" stop-color="#FF4900"/>
</linearGradient>
</defs>
</svg>
