<svg width="150" height="150" viewBox="0 0 150 150" fill="none" xmlns="http://www.w3.org/2000/svg">
<rect width="150" height="150" rx="20" fill="black"/>
<path fill-rule="evenodd" clip-rule="evenodd" d="M84.96 93.5762C83.6206 93.5762 82.3561 94.1939 81.5327 95.2504L69.7838 110.326C68.9604 111.382 67.6959 112 66.3565 112H36.5984C35.2723 112 34.0188 111.394 33.1945 110.356L21.9413 96.1725C20.6926 94.5988 20.6856 92.3742 21.9242 90.7926L46.7516 59.0899C47.5752 58.0382 48.8368 57.4238 50.1726 57.4238H65.9028C67.2422 57.4238 68.5067 56.8061 69.3301 55.7496L81.079 40.6742C81.9024 39.6177 83.1669 39 84.5064 39H114.264C115.59 39 116.844 39.6056 117.668 40.6445L128.922 54.8275C130.17 56.4012 130.177 58.6258 128.939 60.2074L104.111 91.9101C103.288 92.9618 102.026 93.5762 100.69 93.5762H84.96ZM77.2939 93.4893C78.6298 93.4893 79.8913 92.8749 80.715 91.8232L105.826 59.7585C106.541 58.8458 105.89 57.5107 104.731 57.5107H73.5689C72.233 57.5107 70.9715 58.1251 70.1478 59.1768L45.037 91.2415C44.3222 92.1542 44.9725 93.4893 46.1317 93.4893H77.2939Z" fill="white"/>
</svg>
