<svg class="globe" width="31" height="30" viewBox="0 0 31 30" fill="none" xmlns="http://www.w3.org/2000/svg">
<g id="globe">
<path id="globe_2" d="M28.1665 15C28.1665 21.9036 22.5701 27.5 15.6665 27.5M28.1665 15C28.1665 8.09644 22.5701 2.5 15.6665 2.5M28.1665 15H3.1665M15.6665 27.5C8.76294 27.5 3.1665 21.9036 3.1665 15M15.6665 27.5C18.7931 24.0771 20.5699 19.635 20.6665 15C20.5699 10.365 18.7931 5.92294 15.6665 2.5M15.6665 27.5C12.5399 24.0771 10.7631 19.635 10.6665 15C10.7631 10.365 12.5399 5.92294 15.6665 2.5M3.1665 15C3.1665 8.09644 8.76294 2.5 15.6665 2.5" stroke="url(#paint0_linear_3583_31325)" stroke-width="1.25" stroke-linecap="round" stroke-linejoin="round"/>
</g>
<defs>
<linearGradient id="paint0_linear_3583_31325" x1="3.1665" y1="2.5" x2="33.1665" y2="27.5" gradientUnits="userSpaceOnUse">
<stop stop-color="#008080"/>
<stop offset="1" stop-color="#FF4900"/>
</linearGradient>
</defs>
</svg>
