<svg width="150" height="102" viewBox="0 0 150 102" fill="none" xmlns="http://www.w3.org/2000/svg">
<path id="logo-ac" fill-rule="evenodd" clip-rule="evenodd" d="M88.1293 75.9068C86.2838 75.9068 84.5414 76.758 83.4069 78.2137L67.2183 98.9858C66.0838 100.442 64.3414 101.293 62.4958 101.293H21.4928C19.6655 101.293 17.9383 100.458 16.8026 99.0268L1.29699 79.4843C-0.423502 77.3158 -0.433231 74.2507 1.27345 72.0714L35.4827 28.3889C36.6175 26.9398 38.3558 26.0932 40.1964 26.0932H61.8707C63.7162 26.0932 65.4586 25.242 66.5931 23.7863L82.7818 3.01416C83.9162 1.55847 85.6587 0.707336 87.5042 0.707336H128.507C130.334 0.707336 132.062 1.54177 133.197 2.9732L148.703 22.5157C150.424 24.6842 150.433 27.7493 148.727 29.9286L114.517 73.6111C113.383 75.0602 111.644 75.9068 109.804 75.9068H88.1293ZM77.5664 75.7871C79.407 75.7871 81.1453 74.9405 82.2801 73.4914L116.88 29.3101C117.865 28.0526 116.969 26.2129 115.372 26.2129H72.4336C70.593 26.2129 68.8547 27.0595 67.7199 28.5086L33.1201 72.6899C32.1352 73.9474 33.0312 75.7871 34.6285 75.7871H77.5664Z" fill="white"/>
</svg>
